<svg width="14" height="14" viewBox="0 0 14 14" fill="none" xmlns="http://www.w3.org/2000/svg">
<path d="M6.69922 0.836712C5.95821 0.981634 5.38125 1.39999 5.08594 2.00976C4.87266 2.44452 4.88633 2.27499 4.87266 5.18163C4.86446 7.94062 4.86992 8.12109 4.99024 8.47382C5.20352 9.10546 5.73672 9.60312 6.41211 9.80546C6.62266 9.86562 6.71016 9.87656 7 9.87656C7.28985 9.87656 7.37735 9.86562 7.58789 9.80546C8.26328 9.60312 8.79649 9.10546 9.00977 8.47382C9.13008 8.12109 9.13555 7.94062 9.12735 5.18163C9.11367 2.27499 9.12735 2.44452 8.91406 2.00976C8.65977 1.48476 8.15664 1.06913 7.57422 0.902337C7.37461 0.844915 6.85781 0.806634 6.69922 0.836712Z" fill="#50AF00"/>
<path d="M1.48204 1.34258C1.37813 1.37265 1.16212 1.58593 0.929695 1.88672C0.511336 2.43086 0.226961 3.04882 0.0820391 3.73242C0.0054766 4.07968 -0.0218671 4.86718 0.0273516 5.23359C0.153133 6.19609 0.58243 7.09843 1.23868 7.77656C1.42188 7.96797 1.52032 8.00898 1.71173 7.97343C1.84571 7.94609 1.99337 7.80664 2.02345 7.67265C2.06993 7.46757 2.02891 7.38007 1.73087 7.04648C1.35352 6.62265 1.05001 6.01562 0.916023 5.41406C0.847664 5.10507 0.831258 4.39414 0.883211 4.08789C1.01173 3.35234 1.31524 2.7207 1.78829 2.19297C2.00704 1.95234 2.02891 1.91132 2.03165 1.75C2.03712 1.46015 1.76368 1.25781 1.48204 1.34258Z" fill="#50AF00"/>
<path d="M12.2363 1.3535C12.1762 1.37538 12.0996 1.4246 12.0668 1.46288C12.0012 1.53671 11.941 1.71991 11.9602 1.78006C11.9656 1.80194 11.9793 1.85116 11.9875 1.88944C11.9957 1.92772 12.0887 2.05624 12.1953 2.17655C12.6902 2.72889 12.9855 3.34413 13.1168 4.08788C13.1687 4.39413 13.1523 5.10506 13.084 5.41405C12.95 6.01561 12.6465 6.62264 12.2691 7.04647C12.1871 7.13671 12.0914 7.25428 12.0531 7.3035C11.8098 7.62889 12.0832 8.04452 12.4906 7.97069C12.7121 7.93241 13.2562 7.24881 13.5625 6.62264C13.8852 5.95819 14.0164 5.31288 13.9918 4.4953C13.9727 3.80077 13.8332 3.22655 13.557 2.67147C13.2508 2.05624 12.7367 1.40546 12.5043 1.34256C12.3758 1.30702 12.3703 1.30702 12.2363 1.3535Z" fill="#50AF00"/>
<path d="M2.58125 2.54023C2.25586 2.74258 1.86758 3.37969 1.71993 3.9457C1.6461 4.23008 1.62149 4.77422 1.66797 5.08867C1.73907 5.58359 1.95235 6.07031 2.27227 6.46406C2.49922 6.7457 2.58946 6.80859 2.77266 6.80859C3.02149 6.80859 3.19922 6.63906 3.19922 6.40391C3.19922 6.25898 3.17735 6.21797 2.97774 5.97461C2.7836 5.73945 2.64961 5.49062 2.56485 5.22266C2.48008 4.95195 2.47461 4.36953 2.55118 4.11797C2.65508 3.78711 2.80274 3.53555 3.09258 3.19375C3.25391 3.00508 3.22383 2.7043 3.02696 2.56484C2.90938 2.48008 2.69336 2.46914 2.58125 2.54023Z" fill="#50AF00"/>
<path d="M11.025 2.53477C10.8773 2.60586 10.8145 2.7207 10.8145 2.91758C10.8145 3.06797 10.8227 3.09531 10.9047 3.19102C11.2 3.53555 11.3449 3.78438 11.4488 4.11797C11.5254 4.36953 11.5199 4.95195 11.4352 5.22266C11.3504 5.49063 11.2164 5.73945 11.0223 5.97461C10.8227 6.21797 10.8008 6.25898 10.8008 6.40391C10.8008 6.63906 10.9785 6.80859 11.2273 6.80859C11.4105 6.80859 11.5008 6.7457 11.7277 6.46406C12.0477 6.07031 12.2609 5.58359 12.332 5.08867C12.3785 4.77422 12.3539 4.23008 12.2801 3.9457C12.1324 3.37969 11.7387 2.73438 11.4187 2.54024C11.3148 2.47734 11.1453 2.47461 11.025 2.53477Z" fill="#50AF00"/>
<path d="M3.8965 3.6504C3.88283 3.65587 3.83634 3.66681 3.79806 3.67501C3.75704 3.68321 3.67501 3.74337 3.61486 3.80626C3.17189 4.26017 3.17189 5.02853 3.61212 5.50157C3.79533 5.69571 4.03322 5.71486 4.22462 5.54806C4.40509 5.38946 4.41329 5.15157 4.24376 4.93009C4.1754 4.83986 4.14533 4.76876 4.13712 4.67853C4.12618 4.56642 4.13712 4.53361 4.24103 4.38048C4.33947 4.23556 4.35861 4.18361 4.35861 4.07696C4.35861 3.92111 4.28478 3.78165 4.16993 3.71603C4.0879 3.66954 3.94572 3.63673 3.8965 3.6504Z" fill="#50AF00"/>
<path d="M9.96133 3.66407C9.75898 3.71056 9.64414 3.86095 9.64141 4.0797C9.64141 4.18361 9.66328 4.23556 9.75898 4.38048C9.86289 4.53361 9.87383 4.56642 9.86289 4.67853C9.85469 4.76876 9.82461 4.83986 9.75625 4.93009C9.58672 5.15157 9.59492 5.38946 9.77539 5.54806C9.9668 5.71486 10.2047 5.69571 10.3879 5.50157C10.7461 5.11329 10.8227 4.51446 10.5656 4.04962C10.3961 3.74064 10.1937 3.61212 9.96133 3.66407Z" fill="#50AF00"/>
<path d="M3.42345 7.46484C3.36602 7.50039 3.31134 7.56875 3.27579 7.64805C3.2211 7.76836 3.2211 7.7957 3.25118 8.11562C3.33321 9.01797 3.67774 9.75078 4.32032 10.3906C4.87813 10.9512 5.54532 11.3039 6.32188 11.4516L6.56251 11.4953V11.9137V12.3293L5.8543 12.3375C5.18712 12.3457 5.14063 12.3484 5.06954 12.4031C4.93009 12.507 4.8836 12.5945 4.8836 12.7559C4.8836 12.9172 4.93009 13.0047 5.06954 13.1086C5.14337 13.166 5.16798 13.166 7.00001 13.166C8.83204 13.166 8.85665 13.166 8.93048 13.1086C9.06993 13.0047 9.11641 12.9172 9.11641 12.7559C9.11641 12.5945 9.06993 12.507 8.93048 12.4031C8.85938 12.3484 8.8129 12.3457 8.14571 12.3375L7.43751 12.3293V11.9137V11.4953L7.67813 11.4516C8.4547 11.3039 9.12188 10.9512 9.6797 10.3906C10.3223 9.75078 10.6668 9.01797 10.7488 8.11562C10.7789 7.7957 10.7789 7.76836 10.7242 7.64805C10.6531 7.48398 10.5356 7.41016 10.3496 7.41016C10.1938 7.41016 10.0652 7.47578 9.98868 7.59063C9.95587 7.63984 9.93126 7.77383 9.90665 8.00625C9.83282 8.72813 9.6004 9.24492 9.12735 9.74805C8.68985 10.2102 8.12657 10.5219 7.51407 10.6395C7.29259 10.6832 6.70743 10.6832 6.48595 10.6395C5.87345 10.5219 5.31016 10.2102 4.87266 9.74805C4.39962 9.24492 4.1672 8.72813 4.09337 8.00625C4.05509 7.63438 4.02227 7.55508 3.87462 7.46484C3.75704 7.39102 3.54376 7.39375 3.42345 7.46484Z" fill="#50AF00"/>
</svg>
