<svg width="396" height="151" viewBox="0 0 396 151" fill="none" xmlns="http://www.w3.org/2000/svg">
<line x1="200.107" y1="1.31812" x2="200.107" y2="150.45" stroke="#505050" stroke-width="0.842553"/>
<rect y="1.31812" width="21.9064" height="37.9149" fill="#00E14D"/>
<rect x="29.4895" y="1.31812" width="14.3234" height="37.9149" fill="#00E14D"/>
<rect x="49" y="44" width="4" height="69" fill="#9C3C87"/>
<rect x="60" y="44" width="4" height="69" fill="#9C3C87"/>
<rect x="75" y="44" width="23" height="69" fill="#9C3C87"/>
<rect x="118" y="44" width="147" height="69" fill="#9C3C87"/>
<rect x="286" y="44" width="19" height="69" fill="#9C3C87"/>
<rect x="264.562" y="112.535" width="21.9064" height="37.9149" fill="#1000C8"/>
<rect x="97.7363" y="113.378" width="19.3787" height="37.0723" fill="#1000C8"/>
<rect x="64.0342" y="112.535" width="10.9532" height="37.9149" fill="#1000C8"/>
<rect x="53.0813" y="112.535" width="6.74043" height="37.9149" fill="#1000C8"/>
<rect x="305.004" y="112.535" width="12.6383" height="37.9149" fill="#1000C8"/>
<rect x="318" y="44" width="18" height="69" fill="#9C3C87"/>
<rect x="341.233" y="1.31812" width="5.05532" height="37.0723" fill="#00E14D"/>
<rect x="350.503" y="1.31812" width="9.26809" height="37.0723" fill="#00E14D"/>
<rect x="363.14" y="1.31812" width="16.8511" height="37.0723" fill="#00E14D"/>
<rect x="385.89" y="1.31812" width="9.26809" height="37.0723" fill="#00E14D"/>
<line y1="0.896839" x2="396" y2="0.896839" stroke="#505050" stroke-width="0.842553"/>
<line y1="150.029" x2="396" y2="150.029" stroke="#505050" stroke-width="0.842553"/>
</svg>
