<svg width="192" height="195" viewBox="0 0 192 195" fill="none" xmlns="http://www.w3.org/2000/svg">
<path d="M3.51918 107.132C2.93265 107.132 2.40896 106.985 1.94812 106.692C1.48727 106.392 1.12418 105.959 0.858848 105.393C0.593513 104.821 0.460845 104.143 0.460845 103.361C0.460845 102.579 0.593513 101.905 0.858848 101.34C1.12418 100.767 1.48727 100.334 1.94812 100.041C2.40896 99.7407 2.93265 99.5906 3.51918 99.5906C4.10571 99.5906 4.6294 99.7407 5.09025 100.041C5.55807 100.334 5.92466 100.767 6.18999 101.34C6.45533 101.905 6.58799 102.579 6.58799 103.361C6.58799 104.143 6.45533 104.821 6.18999 105.393C5.92466 105.959 5.55807 106.392 5.09025 106.692C4.6294 106.985 4.10571 107.132 3.51918 107.132ZM3.51918 105.948C4.04287 105.948 4.45484 105.732 4.75509 105.299C5.06232 104.866 5.21593 104.22 5.21593 103.361C5.21593 102.502 5.06232 101.856 4.75509 101.424C4.45484 100.991 4.04287 100.774 3.51918 100.774C3.00248 100.774 2.59051 100.991 2.28328 101.424C1.98303 101.856 1.83291 102.502 1.83291 103.361C1.83291 104.22 1.98303 104.866 2.28328 105.299C2.59051 105.732 3.00248 105.948 3.51918 105.948ZM9.6343 107.1C9.18044 107.1 8.73705 107.041 8.30414 106.922C7.87122 106.804 7.52559 106.653 7.26723 106.472L7.76997 105.477C8.02134 105.644 8.32159 105.781 8.67072 105.885C9.02682 105.983 9.37595 106.032 9.71809 106.032C10.5001 106.032 10.8912 105.826 10.8912 105.414C10.8912 105.219 10.7899 105.082 10.5874 105.006C10.3919 104.929 10.0742 104.855 9.6343 104.786C9.17346 104.716 8.7964 104.635 8.50314 104.545C8.21685 104.454 7.96548 104.297 7.74903 104.073C7.53955 103.843 7.43481 103.525 7.43481 103.12C7.43481 102.59 7.65476 102.167 8.09466 101.853C8.54154 101.532 9.14204 101.371 9.89615 101.371C10.2802 101.371 10.6642 101.417 11.0483 101.507C11.4323 101.591 11.7465 101.706 11.9909 101.853L11.4882 102.848C11.0133 102.569 10.4792 102.429 9.88567 102.429C9.50163 102.429 9.20837 102.488 9.00588 102.607C8.81037 102.719 8.71261 102.869 8.71261 103.057C8.71261 103.267 8.81735 103.417 9.02682 103.508C9.24328 103.592 9.57495 103.672 10.0218 103.749C10.4687 103.819 10.8353 103.899 11.1216 103.99C11.4079 104.08 11.6522 104.234 11.8547 104.45C12.0642 104.667 12.169 104.974 12.169 105.372C12.169 105.896 11.942 106.315 11.4882 106.629C11.0343 106.943 10.4163 107.1 9.6343 107.1Z" fill="white"/>
<path d="M36.4326 113.302C35.8541 113.302 35.3842 113.771 35.3943 114.35C35.6653 129.943 41.9774 144.84 53.0244 155.887C64.3186 167.181 79.6369 173.526 95.6093 173.526C111.582 173.526 126.9 167.181 138.194 155.887C149.241 144.84 155.553 129.943 155.824 114.35C155.834 113.771 155.364 113.302 154.786 113.302L139.196 113.302C138.618 113.302 138.15 113.771 138.136 114.349C137.868 125.252 133.42 135.651 125.689 143.382C117.712 151.359 106.891 155.841 95.6093 155.841C84.3271 155.841 73.5071 151.359 65.5294 143.382C57.7989 135.651 53.3509 125.252 53.0827 114.349C53.0685 113.771 52.6009 113.302 52.0225 113.302H36.4326Z" fill="#FF3E01"/>
<path d="M147.438 106.526C147.438 78.0264 124.335 54.9227 95.8348 54.9227C67.335 54.9227 44.2314 78.0264 44.2314 106.526" stroke="#FF3E01" stroke-width="1.81065" stroke-linejoin="bevel" stroke-dasharray="10.86 10.86"/>
<path d="M169.433 103.167C170.59 103.167 171.531 102.228 171.499 101.072C171.244 91.8141 169.296 82.6749 165.748 74.1076C161.932 64.8948 156.338 56.5238 149.287 49.4726C142.236 42.4214 133.865 36.8281 124.652 33.012C115.439 29.1959 105.565 27.2318 95.5932 27.2318C85.6213 27.2318 75.747 29.1959 66.5342 33.012C57.3214 36.8281 48.9504 42.4214 41.8992 49.4726C34.848 56.5238 29.2547 64.8948 25.4386 74.1076C21.8899 82.6749 19.9428 91.8141 19.6873 101.072C19.6554 102.228 20.5963 103.167 21.7532 103.167H34.926C36.0829 103.167 37.0169 102.228 37.0582 101.072C37.3079 94.0949 38.8032 87.2125 41.4793 80.7519C44.4229 73.6455 48.7373 67.1886 54.1762 61.7496C59.6152 56.3107 66.0722 51.9963 73.1785 49.0527C80.2848 46.1092 87.9013 44.5942 95.5932 44.5942C103.285 44.5942 110.902 46.1092 118.008 49.0527C125.114 51.9962 131.571 56.3107 137.01 61.7496C142.449 67.1886 146.763 73.6455 149.707 80.7519C152.383 87.2125 153.878 94.0949 154.128 101.072C154.169 102.228 155.103 103.167 156.26 103.167H169.433Z" fill="white"/>
<path d="M95.5932 29.3266C95.5932 28.1697 94.6551 27.2288 93.4986 27.2607C84.2408 27.5162 75.1015 29.4633 66.5342 33.012C57.3214 36.8281 48.9504 42.4214 41.8992 49.4726C34.848 56.5238 29.2547 64.8948 25.4386 74.1076C21.8899 82.6749 19.9428 91.8141 19.6873 101.072C19.6554 102.228 20.5963 103.167 21.7532 103.167H35.1648C36.3217 103.167 37.2556 102.228 37.2971 101.072C37.5467 94.1263 39.0358 87.2749 41.6999 80.8432C44.6314 73.7659 48.9283 67.3352 54.345 61.9184C59.7618 56.5016 66.1925 52.2048 73.2699 49.2733C79.7016 46.6092 86.5529 45.12 93.4988 44.8705C94.655 44.829 95.5932 43.895 95.5932 42.7381V29.3266Z" fill="black"/>
<rect x="87.1398" y="26.4407" width="17.8892" height="17.8892" rx="8.94459" fill="#1C1C1C" stroke="#434343" stroke-width="5.70095"/>
<path d="M90.9752 10.6684V18H89.6136V11.81H88.0635V10.6684H90.9752ZM94.7233 13.5068C95.7567 13.5068 96.5213 13.7093 97.0171 14.1142C97.5128 14.5122 97.7607 15.0569 97.7607 15.7481C97.7607 16.188 97.6525 16.586 97.436 16.9422C97.2195 17.2983 96.8949 17.581 96.4619 17.7905C96.029 18 95.4949 18.1047 94.8595 18.1047C94.3358 18.1047 93.8295 18.0314 93.3408 17.8848C92.852 17.7312 92.44 17.5217 92.1049 17.2564L92.6809 16.1985C92.9532 16.422 93.2779 16.6 93.655 16.7327C94.039 16.8584 94.4335 16.9212 94.8385 16.9212C95.3203 16.9212 95.6974 16.8234 95.9697 16.6279C96.249 16.4254 96.3886 16.1496 96.3886 15.8005C96.3886 15.4235 96.2385 15.1407 95.9383 14.9521C95.645 14.7566 95.1388 14.6589 94.4196 14.6589H92.6495L93.0266 10.6684H97.3313V11.81H94.1787L94.0216 13.5068H94.7233ZM100.672 18.0733C100.218 18.0733 99.775 18.014 99.3421 17.8953C98.9092 17.7766 98.5635 17.6264 98.3052 17.4449L98.8079 16.4499C99.0593 16.6175 99.3595 16.7536 99.7086 16.8584C100.065 16.9561 100.414 17.005 100.756 17.005C101.538 17.005 101.929 16.799 101.929 16.387C101.929 16.1915 101.828 16.0554 101.625 15.9786C101.43 15.9018 101.112 15.8284 100.672 15.7586C100.211 15.6888 99.8343 15.6085 99.5411 15.5177C99.2548 15.4269 99.0034 15.2698 98.787 15.0464C98.5775 14.816 98.4727 14.4983 98.4727 14.0933C98.4727 13.5626 98.6927 13.1402 99.1326 12.826C99.5795 12.5048 100.18 12.3442 100.934 12.3442C101.318 12.3442 101.702 12.3896 102.086 12.4803C102.47 12.5641 102.784 12.6793 103.029 12.826L102.526 13.821C102.051 13.5417 101.517 13.402 100.924 13.402C100.54 13.402 100.246 13.4614 100.044 13.5801C99.8483 13.6918 99.7505 13.8419 99.7505 14.0304C99.7505 14.2399 99.8553 14.39 100.065 14.4808C100.281 14.5646 100.613 14.6449 101.06 14.7217C101.507 14.7915 101.873 14.8718 102.16 14.9626C102.446 15.0534 102.69 15.207 102.893 15.4235C103.102 15.6399 103.207 15.9471 103.207 16.3451C103.207 16.8688 102.98 17.2878 102.526 17.602C102.072 17.9162 101.454 18.0733 100.672 18.0733Z" fill="white"/>
<path d="M178.955 99.6953V107.027H177.593V100.837H176.043V99.6953H178.955ZM182.703 102.534C183.736 102.534 184.501 102.736 184.997 103.141C185.492 103.539 185.74 104.084 185.74 104.775C185.74 105.215 185.632 105.613 185.416 105.969C185.199 106.325 184.875 106.608 184.442 106.818C184.009 107.027 183.475 107.132 182.839 107.132C182.315 107.132 181.809 107.058 181.32 106.912C180.832 106.758 180.42 106.549 180.085 106.283L180.661 105.225C180.933 105.449 181.258 105.627 181.635 105.76C182.019 105.885 182.413 105.948 182.818 105.948C183.3 105.948 183.677 105.85 183.949 105.655C184.229 105.452 184.368 105.177 184.368 104.827C184.368 104.45 184.218 104.168 183.918 103.979C183.625 103.784 183.118 103.686 182.399 103.686H180.629L181.006 99.6953H185.311V100.837H182.158L182.001 102.534H182.703ZM188.652 107.1C188.198 107.1 187.755 107.041 187.322 106.922C186.889 106.804 186.543 106.653 186.285 106.472L186.788 105.477C187.039 105.644 187.339 105.781 187.688 105.885C188.044 105.983 188.394 106.032 188.736 106.032C189.518 106.032 189.909 105.826 189.909 105.414C189.909 105.219 189.807 105.082 189.605 105.006C189.409 104.929 189.092 104.855 188.652 104.786C188.191 104.716 187.814 104.635 187.521 104.545C187.234 104.454 186.983 104.297 186.767 104.073C186.557 103.843 186.452 103.525 186.452 103.12C186.452 102.59 186.672 102.167 187.112 101.853C187.559 101.532 188.16 101.371 188.914 101.371C189.298 101.371 189.682 101.417 190.066 101.507C190.45 101.591 190.764 101.706 191.008 101.853L190.506 102.848C190.031 102.569 189.497 102.429 188.903 102.429C188.519 102.429 188.226 102.488 188.023 102.607C187.828 102.719 187.73 102.869 187.73 103.057C187.73 103.267 187.835 103.417 188.044 103.508C188.261 103.592 188.593 103.672 189.039 103.749C189.486 103.819 189.853 103.899 190.139 103.99C190.425 104.08 190.67 104.234 190.872 104.45C191.082 104.667 191.187 104.974 191.187 105.372C191.187 105.896 190.96 106.315 190.506 106.629C190.052 106.943 189.434 107.1 188.652 107.1Z" fill="white"/>
<path d="M72.7829 183.56V190.892H71.4214V184.702H69.8712V183.56H72.7829ZM76.5311 186.399C77.5645 186.399 78.3291 186.601 78.8248 187.006C79.3206 187.404 79.5685 187.949 79.5685 188.64C79.5685 189.08 79.4602 189.478 79.2438 189.834C79.0273 190.19 78.7026 190.473 78.2697 190.682C77.8368 190.892 77.3026 190.997 76.6672 190.997C76.1435 190.997 75.6373 190.923 75.1485 190.777C74.6598 190.623 74.2478 190.414 73.9126 190.148L74.4887 189.09C74.761 189.314 75.0857 189.492 75.4627 189.625C75.8468 189.75 76.2413 189.813 76.6463 189.813C77.1281 189.813 77.5051 189.715 77.7774 189.52C78.0567 189.317 78.1964 189.041 78.1964 188.692C78.1964 188.315 78.0463 188.033 77.746 187.844C77.4528 187.648 76.9465 187.551 76.2273 187.551H74.4573L74.8343 183.56H79.139V184.702H75.9864L75.8293 186.399H76.5311ZM82.48 190.965C82.0261 190.965 81.5828 190.906 81.1498 190.787C80.7169 190.668 80.3713 190.518 80.1129 190.337L80.6157 189.342C80.867 189.509 81.1673 189.645 81.5164 189.75C81.8725 189.848 82.2217 189.897 82.5638 189.897C83.3458 189.897 83.7369 189.691 83.7369 189.279C83.7369 189.083 83.6356 188.947 83.4331 188.87C83.2376 188.794 82.9199 188.72 82.48 188.65C82.0192 188.581 81.6421 188.5 81.3488 188.41C81.0626 188.319 80.8112 188.162 80.5947 187.938C80.3853 187.708 80.2805 187.39 80.2805 186.985C80.2805 186.454 80.5005 186.032 80.9404 185.718C81.3872 185.397 81.9877 185.236 82.7418 185.236C83.1259 185.236 83.5099 185.281 83.894 185.372C84.278 185.456 84.5922 185.571 84.8366 185.718L84.3339 186.713C83.859 186.434 83.3249 186.294 82.7314 186.294C82.3473 186.294 82.0541 186.353 81.8516 186.472C81.6561 186.584 81.5583 186.734 81.5583 186.922C81.5583 187.132 81.663 187.282 81.8725 187.373C82.089 187.456 82.4207 187.537 82.8675 187.614C83.3144 187.683 83.681 187.764 83.9673 187.854C84.2536 187.945 84.4979 188.099 84.7004 188.315C84.9099 188.532 85.0147 188.839 85.0147 189.237C85.0147 189.761 84.7877 190.18 84.3339 190.494C83.88 190.808 83.262 190.965 82.48 190.965ZM88.8025 189.855C89.4099 189.855 89.9162 189.652 90.3212 189.247L91.0124 190.054C90.768 190.354 90.4538 190.581 90.0698 190.735C89.6858 190.888 89.2528 190.965 88.771 190.965C88.1566 190.965 87.6154 190.843 87.1476 190.599C86.6798 190.354 86.3167 190.016 86.0583 189.583C85.807 189.143 85.6813 188.647 85.6813 188.095C85.6813 187.551 85.8035 187.062 86.0479 186.629C86.2992 186.189 86.6414 185.847 87.0743 185.603C87.5142 185.358 88.01 185.236 88.5616 185.236C89.0853 185.236 89.5601 185.351 89.986 185.582C90.4189 185.805 90.7611 186.13 91.0124 186.556C91.2638 186.975 91.3895 187.467 91.3895 188.033L87.1057 188.87C87.2384 189.192 87.4514 189.436 87.7446 189.604C88.0379 189.771 88.3905 189.855 88.8025 189.855ZM88.5616 186.283C88.0798 186.283 87.6888 186.44 87.3885 186.755C87.0952 187.069 86.9486 187.491 86.9486 188.022V188.033L90.1117 187.425C90.0209 187.083 89.8359 186.807 89.5566 186.598C89.2843 186.388 88.9526 186.283 88.5616 186.283ZM95.2134 190.965C94.6338 190.965 94.1136 190.843 93.6528 190.599C93.192 190.354 92.8324 190.016 92.574 189.583C92.3157 189.143 92.1865 188.647 92.1865 188.095C92.1865 187.544 92.3157 187.051 92.574 186.619C92.8324 186.186 93.1885 185.847 93.6423 185.603C94.1032 185.358 94.6269 185.236 95.2134 185.236C95.765 185.236 96.2468 185.348 96.6588 185.571C97.0777 185.795 97.3919 186.116 97.6014 186.535L96.5959 187.121C96.4353 186.863 96.2328 186.671 95.9885 186.545C95.751 186.413 95.4892 186.346 95.2029 186.346C94.7141 186.346 94.3092 186.507 93.988 186.828C93.6668 187.142 93.5062 187.565 93.5062 188.095C93.5062 188.626 93.6633 189.052 93.9775 189.373C94.2987 189.687 94.7072 189.844 95.2029 189.844C95.4892 189.844 95.751 189.782 95.9885 189.656C96.2328 189.523 96.4353 189.328 96.5959 189.069L97.6014 189.656C97.385 190.075 97.0672 190.4 96.6483 190.63C96.2363 190.853 95.758 190.965 95.2134 190.965ZM101.753 183.56H103.115V189.74H106.948V190.892H101.753V183.56ZM110.507 189.855C111.114 189.855 111.621 189.652 112.026 189.247L112.717 190.054C112.472 190.354 112.158 190.581 111.774 190.735C111.39 190.888 110.957 190.965 110.475 190.965C109.861 190.965 109.32 190.843 108.852 190.599C108.384 190.354 108.021 190.016 107.763 189.583C107.511 189.143 107.386 188.647 107.386 188.095C107.386 187.551 107.508 187.062 107.752 186.629C108.004 186.189 108.346 185.847 108.779 185.603C109.219 185.358 109.714 185.236 110.266 185.236C110.79 185.236 111.264 185.351 111.69 185.582C112.123 185.805 112.465 186.13 112.717 186.556C112.968 186.975 113.094 187.467 113.094 188.033L108.81 188.87C108.943 189.192 109.156 189.436 109.449 189.604C109.742 189.771 110.095 189.855 110.507 189.855ZM110.266 186.283C109.784 186.283 109.393 186.44 109.093 186.755C108.8 187.069 108.653 187.491 108.653 188.022V188.033L111.816 187.425C111.725 187.083 111.54 186.807 111.261 186.598C110.989 186.388 110.657 186.283 110.266 186.283ZM116.457 184.105C115.905 184.105 115.63 184.405 115.63 185.006V185.341H117.169V186.388H115.661V190.892H114.352V184.985C114.352 184.391 114.526 183.92 114.875 183.571C115.225 183.222 115.72 183.047 116.363 183.047C116.858 183.047 117.249 183.148 117.536 183.351L117.169 184.335C116.96 184.182 116.722 184.105 116.457 184.105ZM121.186 190.588C121.033 190.714 120.844 190.808 120.621 190.871C120.404 190.934 120.174 190.965 119.929 190.965C119.315 190.965 118.84 190.805 118.505 190.483C118.17 190.162 118.002 189.694 118.002 189.08V184.063H119.311V185.341H120.809V186.388H119.311V189.048C119.311 189.321 119.378 189.53 119.51 189.677C119.65 189.817 119.842 189.886 120.087 189.886C120.38 189.886 120.624 189.81 120.82 189.656L121.186 190.588Z" fill="white"/>
<path d="M69.1951 96.944C69.7322 97.12 70.1581 97.4163 70.473 97.833C70.7878 98.2404 70.9452 98.7497 70.9452 99.3609C70.9452 100.204 70.6211 100.856 69.9729 101.319C69.3247 101.773 68.3802 102 67.1394 102H62.3057V92.277H66.8616C68.0098 92.277 68.8942 92.5039 69.5146 92.9576C70.135 93.4021 70.4452 94.0179 70.4452 94.805C70.4452 95.2865 70.3341 95.7125 70.1118 96.0829C69.8896 96.4533 69.584 96.7403 69.1951 96.944ZM64.1114 93.6938V96.3745H66.6671C67.2968 96.3745 67.7783 96.2634 68.1117 96.0412C68.4543 95.8097 68.6256 95.4763 68.6256 95.0411C68.6256 94.5966 68.4543 94.2633 68.1117 94.041C67.7783 93.8095 67.2968 93.6938 66.6671 93.6938H64.1114ZM67.0283 100.583C68.4265 100.583 69.1257 100.116 69.1257 99.1803C69.1257 98.2451 68.4265 97.7774 67.0283 97.7774H64.1114V100.583H67.0283ZM76.8727 92.277C77.7153 92.277 78.4469 92.4159 79.0673 92.6937C79.697 92.9715 80.1785 93.3697 80.5119 93.8882C80.8452 94.4068 81.0119 95.0226 81.0119 95.7356C81.0119 96.4394 80.8452 97.0552 80.5119 97.583C80.1785 98.1015 79.697 98.4997 79.0673 98.7775C78.4469 99.0553 77.7153 99.1942 76.8727 99.1942H74.6781V102H72.8724V92.277H76.8727ZM76.7893 97.6663C77.5764 97.6663 78.1737 97.4996 78.5812 97.1663C78.9886 96.8329 79.1923 96.356 79.1923 95.7356C79.1923 95.1152 78.9886 94.6383 78.5812 94.3049C78.1737 93.9716 77.5764 93.8049 76.7893 93.8049H74.6781V97.6663H76.7893ZM97.6515 92.1381C98.7905 92.1381 99.6794 92.4715 100.318 93.1382C100.957 93.7956 101.277 94.7448 101.277 95.9856V102H99.4711V96.0551C99.4711 95.2865 99.2674 94.7077 98.8599 94.3188C98.4617 93.9206 97.9385 93.7216 97.2903 93.7216C96.5681 93.7216 95.9893 93.9253 95.5541 94.3327C95.1281 94.7402 94.9151 95.3652 94.9151 96.2079V102H93.1094V96.0551C93.1094 95.2772 92.9196 94.6939 92.54 94.3049C92.1696 93.916 91.6603 93.7216 91.0121 93.7216C90.2805 93.7216 89.6925 93.9299 89.248 94.3466C88.8128 94.754 88.5952 95.3745 88.5952 96.2079V102H86.7895V92.277H88.5396V93.5549C88.836 93.1011 89.2388 92.7539 89.7481 92.5131C90.2574 92.2631 90.8454 92.1381 91.5121 92.1381C92.1973 92.1381 92.7946 92.2677 93.3039 92.527C93.8132 92.7863 94.1975 93.1521 94.4568 93.6243C94.7809 93.1521 95.2207 92.7863 95.7763 92.527C96.3412 92.2677 96.9662 92.1381 97.6515 92.1381ZM107.161 100.625C107.966 100.625 108.638 100.356 109.175 99.8193L110.091 100.889C109.767 101.287 109.351 101.588 108.841 101.792C108.332 101.995 107.758 102.097 107.119 102.097C106.304 102.097 105.587 101.935 104.966 101.611C104.346 101.287 103.864 100.838 103.522 100.264C103.188 99.6804 103.021 99.0229 103.021 98.2914C103.021 97.5691 103.184 96.9209 103.508 96.3468C103.841 95.7634 104.295 95.3096 104.869 94.9855C105.452 94.6614 106.11 94.4994 106.841 94.4994C107.536 94.4994 108.165 94.6522 108.73 94.9578C109.304 95.2541 109.758 95.6847 110.091 96.2495C110.425 96.8051 110.592 97.458 110.592 98.208L104.911 99.3192C105.086 99.7452 105.369 100.069 105.758 100.292C106.147 100.514 106.614 100.625 107.161 100.625ZM106.841 95.8884C106.202 95.8884 105.684 96.0967 105.286 96.5134C104.897 96.9301 104.702 97.4904 104.702 98.1941V98.208L108.897 97.4024C108.777 96.9487 108.531 96.5829 108.161 96.3051C107.8 96.0273 107.36 95.8884 106.841 95.8884ZM116.427 101.597C116.223 101.764 115.973 101.889 115.677 101.972C115.39 102.056 115.084 102.097 114.76 102.097C113.945 102.097 113.315 101.884 112.871 101.458C112.426 101.032 112.204 100.412 112.204 99.597V92.9437H113.94V94.6383H115.927V96.0273H113.94V99.5554C113.94 99.9165 114.028 100.194 114.204 100.389C114.389 100.574 114.644 100.667 114.968 100.667C115.357 100.667 115.681 100.565 115.94 100.361L116.427 101.597ZM121.146 100.625C121.951 100.625 122.623 100.356 123.16 99.8193L124.076 100.889C123.752 101.287 123.336 101.588 122.826 101.792C122.317 101.995 121.743 102.097 121.104 102.097C120.289 102.097 119.571 101.935 118.951 101.611C118.331 101.287 117.849 100.838 117.506 100.264C117.173 99.6804 117.006 99.0229 117.006 98.2914C117.006 97.5691 117.168 96.9209 117.493 96.3468C117.826 95.7634 118.28 95.3096 118.854 94.9855C119.437 94.6614 120.095 94.4994 120.826 94.4994C121.521 94.4994 122.15 94.6522 122.715 94.9578C123.289 95.2541 123.743 95.6847 124.076 96.2495C124.41 96.8051 124.576 97.458 124.576 98.208L118.895 99.3192C119.071 99.7452 119.354 100.069 119.743 100.292C120.132 100.514 120.599 100.625 121.146 100.625ZM120.826 95.8884C120.187 95.8884 119.669 96.0967 119.271 96.5134C118.882 96.9301 118.687 97.4904 118.687 98.1941V98.208L122.882 97.4024C122.762 96.9487 122.516 96.5829 122.146 96.3051C121.785 96.0273 121.345 95.8884 120.826 95.8884ZM127.897 95.6662C128.398 94.8883 129.277 94.4994 130.537 94.4994V96.1523C130.388 96.1245 130.254 96.1106 130.134 96.1106C129.458 96.1106 128.93 96.3097 128.55 96.7079C128.171 97.0968 127.981 97.6617 127.981 98.4025V102H126.245V94.5827H127.897V95.6662Z" fill="white"/>
</svg>
