<svg width="272" height="318" viewBox="0 0 272 318" fill="none" xmlns="http://www.w3.org/2000/svg">
<path d="M130.432 125.023C127.589 121.619 128.02 116.494 131.817 114.203C138.097 110.414 145.127 107.968 152.464 107.056C162.469 105.814 172.621 107.478 181.706 111.851C190.79 116.223 198.424 123.119 203.694 131.714C208.964 140.31 211.647 150.241 211.423 160.32C211.2 170.4 208.079 180.202 202.433 188.555C196.787 196.908 188.855 203.459 179.586 207.425C170.316 211.39 160.101 212.603 150.16 210.917C142.871 209.681 135.956 206.926 129.851 202.863C126.158 200.406 125.955 195.266 128.946 191.991C131.937 188.716 136.989 188.58 140.838 190.783C144.539 192.901 148.6 194.363 152.845 195.083C159.744 196.252 166.835 195.411 173.269 192.658C179.702 189.906 185.208 185.359 189.126 179.562C193.045 173.764 195.212 166.96 195.367 159.964C195.522 152.968 193.659 146.075 190.002 140.109C186.344 134.144 181.046 129.357 174.74 126.322C168.435 123.287 161.389 122.132 154.444 122.995C150.172 123.525 146.049 124.806 142.258 126.758C138.315 128.787 133.275 128.427 130.432 125.023Z" fill="#F19339"/>
<path d="M116.283 107.94C113.385 104.469 113.827 99.2618 117.599 96.767C127.026 90.5316 137.797 86.5332 149.086 85.1308C163.094 83.3907 177.306 85.7207 190.024 91.8425C202.743 97.9642 213.43 107.619 220.807 119.652C228.185 131.685 231.942 145.589 231.629 159.7C231.316 173.812 226.946 187.535 219.042 199.229C211.138 210.924 200.033 220.095 187.056 225.646C174.079 231.198 159.777 232.895 145.861 230.536C134.645 228.634 124.061 224.162 114.92 217.515C111.263 214.855 111.052 209.634 114.101 206.295C117.151 202.955 122.303 202.778 126.044 205.319C132.798 209.908 140.485 213.014 148.598 214.39C159.414 216.224 170.529 214.905 180.615 210.59C190.701 206.275 199.331 199.147 205.474 190.059C211.617 180.97 215.014 170.304 215.257 159.337C215.5 148.37 212.58 137.564 206.846 128.212C201.112 118.86 192.807 111.356 182.922 106.598C173.037 101.841 161.992 100.03 151.105 101.382C142.939 102.397 135.122 105.159 128.171 109.444C124.321 111.817 119.182 111.411 116.283 107.94Z" fill="#0213A5"/>
<path d="M104.297 93.5608C101.406 90.0983 101.85 84.9143 105.553 82.3376C117.905 73.7422 132.195 68.2483 147.209 66.3831C164.932 64.1814 182.915 67.1296 199.008 74.8754C215.1 82.6213 228.623 94.8371 237.958 110.063C247.293 125.289 252.047 142.881 251.651 160.736C251.255 178.592 245.725 195.956 235.724 210.752C225.723 225.549 211.672 237.154 195.252 244.178C178.832 251.203 160.736 253.351 143.127 250.365C128.211 247.836 114.178 241.714 102.22 232.579C98.6352 229.841 98.4211 224.642 101.463 221.311C104.506 217.98 109.649 217.787 113.285 220.457C122.888 227.512 134.036 232.255 145.858 234.259C160.374 236.72 175.291 234.95 188.827 229.159C202.363 223.368 213.945 213.802 222.19 201.605C230.434 189.407 234.992 175.093 235.319 160.374C235.645 145.655 231.727 131.153 224.031 118.602C216.336 106.05 205.189 95.9802 191.923 89.5949C178.657 83.2097 163.833 80.7793 149.222 82.5944C137.323 84.0726 125.975 88.3159 116.069 94.9379C112.319 97.4449 107.189 97.0232 104.297 93.5608Z" fill="#0BAD73"/>
<g clip-path="url(#clip0_174_151)">
<path d="M142.899 116.674C142.315 115.656 141.345 114.945 140.224 114.712C138.975 114.453 137.686 114.801 136.724 115.653C136.486 115.866 131.916 121.047 131.867 121.162C131.823 121.262 131.882 121.426 131.979 121.475C132.09 121.533 138.917 122.631 139.232 122.642C141.339 122.721 143.13 121.195 143.383 119.107C143.432 118.704 143.416 118.284 143.339 117.868C143.279 117.553 143.056 116.946 142.899 116.674ZM141.382 118.54C141.396 118.891 141.341 119.155 141.186 119.487C141.033 119.823 140.801 120.088 140.468 120.312C140.257 120.452 139.858 120.59 139.595 120.612C138.838 120.674 138.105 120.31 137.709 119.672C137.602 119.497 137.466 119.117 137.437 118.913C137.337 118.17 137.672 117.422 138.296 116.99C138.514 116.839 138.909 116.693 139.161 116.667C139.898 116.597 140.58 116.893 141.002 117.466C141.167 117.691 141.179 117.716 141.284 118.037C141.36 118.271 141.377 118.352 141.382 118.54Z" fill="white"/>
</g>
<g clip-path="url(#clip1_174_151)">
<path d="M131.167 99.8898C130.621 99.3824 129.787 98.9869 129.021 98.871C128.338 98.7671 127.665 98.7868 126.973 98.9309L126.783 98.9714L126.926 98.7908C127.124 98.5424 127.277 98.2607 127.369 97.9891C127.443 97.7642 127.518 97.3264 127.493 97.2582C127.483 97.2319 127.438 97.2386 127.273 97.2849C126.688 97.4543 125.894 97.6115 125.362 97.6665C124.036 97.7985 123.957 97.8152 123.295 98.0807C122.808 98.2765 122.609 98.393 122.259 98.6828C121.411 99.3898 120.902 100.511 120.929 101.619C120.939 102.112 120.977 102.303 121.183 102.857C121.345 103.294 121.383 103.375 121.501 103.559C122.332 104.841 123.735 105.485 125.249 105.278C125.467 105.247 125.551 105.223 126.01 105.053C126.636 104.821 126.748 104.757 127.566 104.158C128.224 103.676 128.624 103.413 128.985 103.219C129.131 103.142 129.25 103.071 129.247 103.064C129.245 103.058 129.084 103.028 128.893 102.998C128.32 102.911 127.621 102.738 127.416 102.636L127.345 102.6L127.791 102.435C128.646 102.118 128.941 101.928 130.161 100.913C130.568 100.574 130.877 100.355 131.158 100.203C131.303 100.124 131.345 100.094 131.335 100.067C131.328 100.048 131.251 99.9686 131.167 99.8898ZM126.483 100.925C126.224 101.399 125.87 101.785 125.463 102.029C125.371 102.085 125.175 102.176 125.028 102.23L124.763 102.331L124.954 102.355C125.322 102.404 125.726 102.561 125.946 102.737L126.028 102.804L125.873 102.879C125.446 103.082 125.191 103.237 124.735 103.569C124.523 103.72 124.481 103.741 124.145 103.868C123.832 103.986 123.759 104.006 123.593 104.017C123.236 104.045 122.836 103.971 122.536 103.822C121.824 103.472 121.411 102.785 121.414 101.964C121.416 101.748 121.515 101.361 121.629 101.136C121.871 100.662 122.241 100.339 122.773 100.142C123.353 99.9268 124.048 99.8337 124.671 99.8877L124.829 99.9017L124.626 100.117C124.408 100.35 124.174 100.657 124.131 100.763L124.105 100.828L124.198 100.776C124.358 100.681 124.741 100.554 124.931 100.529C125.148 100.501 125.252 100.502 125.747 100.538C126.158 100.566 126.498 100.56 126.605 100.52L126.674 100.495L126.627 100.619C126.602 100.686 126.538 100.822 126.483 100.925Z" fill="white"/>
</g>
<g clip-path="url(#clip2_174_151)">
<path d="M120.054 86.9191C119.904 86.7556 119.675 86.5935 119.479 86.5118C119.141 86.3669 118.639 86.3457 118.246 86.4592C117.607 86.6401 116.719 87.1811 115.824 87.9385C115.503 88.2105 115.442 88.2792 115.443 88.3673C115.444 88.4365 116.4 90.6266 116.455 90.6872C116.527 90.7648 116.625 90.7617 117.018 90.6638C117.498 90.5476 118.236 90.331 118.606 90.1974C118.963 90.0718 119.484 89.809 119.698 89.6476C120.4 89.1157 120.696 88.4283 120.519 87.7519C120.456 87.5081 120.236 87.1126 120.054 86.9191ZM120.051 87.918C120.164 88.4587 119.86 88.9786 119.193 89.3809C118.878 89.5719 118.608 89.6843 117.99 89.88C117.663 89.9812 116.797 90.2213 116.773 90.2128C116.764 90.2101 116.03 88.5507 116.008 88.4876C115.995 88.4441 116.02 88.4168 116.199 88.2664C117.035 87.5713 117.903 87.049 118.424 86.9236C118.913 86.8049 119.374 86.9213 119.684 87.2425C119.821 87.3835 120.013 87.7382 120.051 87.918Z" fill="white"/>
<path d="M113.72 83.5949C113.486 83.328 113.157 83.1409 112.819 83.0821C112.576 83.0402 112.218 83.062 111.937 83.135C111.646 83.2105 111.187 83.436 110.9 83.6436C110.517 83.9236 109.971 84.4088 109.371 85.0077C109.115 85.2621 109.065 85.322 109.046 85.4026C109.034 85.4545 109.037 85.5173 109.055 85.5501C109.072 85.5808 109.393 86.038 109.77 86.5662C110.495 87.5871 110.501 87.5941 110.645 87.5868C110.739 87.5828 111.311 87.3859 111.526 87.2854C111.711 87.1986 111.711 87.1986 111.737 87.101C111.772 86.9851 111.729 86.8884 111.613 86.8242C111.522 86.7725 111.482 86.7816 111.048 86.942C110.877 87.005 110.733 87.0553 110.73 87.0544C110.721 87.0537 109.642 85.5436 109.618 85.5005C109.594 85.4575 110.31 84.7676 110.884 84.2801C111.104 84.0932 111.189 84.0382 111.507 83.8586C111.929 83.6242 112.065 83.5785 112.415 83.558C112.905 83.5274 113.275 83.7348 113.519 84.1733C113.767 84.6252 113.746 85.114 113.457 85.5209C113.388 85.6184 113.285 85.7424 113.227 85.7964C113.097 85.9195 113.071 86.0224 113.138 86.1433C113.236 86.3195 113.397 86.3156 113.587 86.1354C113.936 85.7992 114.161 85.3446 114.189 84.9164C114.215 84.4914 114.016 83.9293 113.72 83.5949Z" fill="white"/>
<path d="M114.943 88.5537C114.91 88.5321 114.856 88.5134 114.827 88.5136C114.74 88.5163 113.706 88.9724 113.55 89.0777C113.144 89.3545 112.912 89.8293 112.94 90.3201C112.964 90.6769 113.084 90.956 113.325 91.211C113.606 91.5104 114.001 91.6695 114.399 91.6439C114.676 91.6266 114.733 91.6084 115.388 91.3199L115.929 91.0782L115.964 91.0054C115.981 90.9637 115.995 90.9022 115.993 90.8688C115.991 90.8217 115.075 88.7053 115.018 88.6113C115.01 88.6022 114.979 88.5742 114.943 88.5537ZM115.103 90.025C115.278 90.4213 115.42 90.7499 115.418 90.7562C115.414 90.7774 114.652 91.1042 114.553 91.1294C114.03 91.2643 113.473 90.8636 113.432 90.3229C113.417 90.141 113.488 89.8683 113.585 89.7288C113.716 89.5406 113.818 89.4732 114.251 89.2814C114.463 89.1851 114.651 89.1045 114.669 89.1027C114.693 89.0975 114.713 89.1239 114.744 89.2002C114.768 89.2569 114.929 89.6286 115.103 90.025Z" fill="white"/>
<path d="M112.61 86.4337C112.555 86.3679 112.407 86.3429 112.326 86.3852C112.132 86.4849 112.156 86.7692 112.364 86.8305C112.594 86.8961 112.767 86.6147 112.61 86.4337Z" fill="white"/>
<path d="M109.322 86.7314C108.906 86.1504 108.664 85.8314 108.621 85.8018C108.501 85.721 108.456 85.7408 107.949 86.1027C107.697 86.2804 107.441 86.4709 107.38 86.526C107.185 86.7012 107.073 86.8897 106.992 87.1702C106.879 87.5653 106.913 87.8713 107.108 88.2237C107.239 88.4594 107.337 88.5684 107.551 88.7207C107.848 88.9334 108.268 89.0138 108.642 88.9294C108.883 88.876 109.018 88.7988 109.55 88.4201L110.059 88.0571L110.081 87.9617C110.11 87.8356 110.089 87.8019 109.322 86.7314ZM109.209 88.0572C109.048 88.1733 108.846 88.3069 108.762 88.3535C108.486 88.5039 108.182 88.5066 107.907 88.3591C107.364 88.071 107.264 87.3063 107.712 86.8914C107.779 86.8297 108.438 86.3511 108.447 86.357C108.46 86.3659 109.422 87.7164 109.457 87.7747L109.5 87.8473L109.209 88.0572Z" fill="white"/>
</g>
<defs>
<clipPath id="clip0_174_151">
<rect width="12" height="12" fill="white" transform="translate(141.143 111.639) rotate(70.2754)"/>
</clipPath>
<clipPath id="clip1_174_151">
<rect width="12" height="12" fill="white" transform="translate(129.632 93.3219) rotate(69.6416)"/>
</clipPath>
<clipPath id="clip2_174_151">
<rect width="12" height="12" fill="white" transform="translate(115.947 79.4225) rotate(60.9543)"/>
</clipPath>
</defs>
</svg>
