<svg width="396" height="142" viewBox="0 0 396 142" fill="none" xmlns="http://www.w3.org/2000/svg">
<path d="M201.821 0C201.821 0 158 73.3739 158 97.5834C158 121.767 177.609 141.405 201.821 141.405C226.033 141.405 245.642 121.767 245.642 97.5834C245.642 73.3714 201.821 0 201.821 0Z" fill="url(#paint0_linear_156_293)"/>
<path d="M182.528 93.1778C181.568 93.1778 180.638 93.0415 179.737 92.7689C178.849 92.4964 178.144 92.1349 177.622 91.6846L178.422 89.8893C178.932 90.2922 179.554 90.624 180.288 90.8847C181.035 91.1336 181.782 91.258 182.528 91.258C183.453 91.258 184.14 91.1099 184.59 90.8136C185.052 90.5174 185.283 90.1263 185.283 89.6404C185.283 89.2849 185.153 88.9946 184.892 88.7694C184.643 88.5324 184.323 88.3487 183.932 88.2184C183.541 88.088 183.008 87.9399 182.333 87.774C181.385 87.5489 180.614 87.3237 180.022 87.0985C179.441 86.8734 178.938 86.5238 178.511 86.0498C178.096 85.5639 177.889 84.9122 177.889 84.0945C177.889 83.4072 178.072 82.785 178.44 82.2281C178.819 81.6592 179.382 81.2089 180.128 80.8771C180.887 80.5453 181.811 80.3794 182.901 80.3794C183.66 80.3794 184.406 80.4742 185.141 80.6638C185.876 80.8534 186.51 81.126 187.043 81.4815L186.314 83.2768C185.769 82.9569 185.2 82.7139 184.608 82.548C184.015 82.3821 183.441 82.2992 182.884 82.2992C181.971 82.2992 181.29 82.4532 180.84 82.7613C180.401 83.0694 180.182 83.4783 180.182 83.9878C180.182 84.3433 180.306 84.6337 180.555 84.8588C180.816 85.084 181.142 85.2617 181.533 85.3921C181.924 85.5224 182.457 85.6706 183.133 85.8365C184.057 86.0498 184.815 86.2749 185.408 86.5119C186 86.7371 186.504 87.0867 186.919 87.5607C187.345 88.0347 187.559 88.6746 187.559 89.4805C187.559 90.1678 187.369 90.7899 186.99 91.3469C186.622 91.9038 186.06 92.3482 185.301 92.68C184.543 93.0119 183.618 93.1778 182.528 93.1778ZM194.898 83.4012C195.823 83.4012 196.646 83.6027 197.369 84.0056C198.104 84.4085 198.679 84.9773 199.093 85.7121C199.508 86.4468 199.715 87.2941 199.715 88.2539C199.715 89.2138 199.508 90.067 199.093 90.8136C198.679 91.5483 198.104 92.1172 197.369 92.5201C196.646 92.923 195.823 93.1244 194.898 93.1244C193.618 93.1244 192.605 92.6978 191.859 91.8446V96.4484H189.637V83.5079H191.752V84.7522C192.119 84.3019 192.57 83.9641 193.103 83.739C193.648 83.5138 194.246 83.4012 194.898 83.4012ZM194.649 91.2225C195.467 91.2225 196.137 90.9499 196.658 90.4048C197.191 89.8597 197.458 89.1427 197.458 88.2539C197.458 87.3652 197.191 86.6482 196.658 86.1031C196.137 85.558 195.467 85.2854 194.649 85.2854C194.116 85.2854 193.636 85.4099 193.21 85.6587C192.783 85.8957 192.445 86.2394 192.196 86.6897C191.948 87.14 191.823 87.6614 191.823 88.2539C191.823 88.8465 191.948 89.3679 192.196 89.8182C192.445 90.2685 192.783 90.6181 193.21 90.8669C193.636 91.1039 194.116 91.2225 194.649 91.2225ZM207.849 93.1778C206.581 93.1778 205.437 92.9052 204.418 92.3601C203.399 91.8031 202.599 91.0388 202.018 90.067C201.437 89.0835 201.147 87.9873 201.147 86.7786C201.147 85.5698 201.437 84.4796 202.018 83.5079C202.599 82.5243 203.399 81.76 204.418 81.2149C205.437 80.6579 206.581 80.3794 207.849 80.3794C209.117 80.3794 210.26 80.6579 211.279 81.2149C212.298 81.76 213.098 82.5184 213.679 83.4901C214.26 84.4618 214.55 85.558 214.55 86.7786C214.55 87.9992 214.26 89.0953 213.679 90.067C213.098 91.0388 212.298 91.8031 211.279 92.3601C210.26 92.9052 209.117 93.1778 207.849 93.1778ZM207.849 91.1513C208.678 91.1513 209.425 90.9677 210.088 90.6003C210.752 90.2211 211.273 89.6997 211.652 89.0361C212.032 88.3606 212.221 87.6081 212.221 86.7786C212.221 85.9491 212.032 85.2025 211.652 84.5389C211.273 83.8634 210.752 83.342 210.088 82.9746C209.425 82.5954 208.678 82.4058 207.849 82.4058C207.019 82.4058 206.272 82.5954 205.609 82.9746C204.945 83.342 204.424 83.8634 204.045 84.5389C203.665 85.2025 203.476 85.9491 203.476 86.7786C203.476 87.6081 203.665 88.3606 204.045 89.0361C204.424 89.6997 204.945 90.2211 205.609 90.6003C206.272 90.9677 207.019 91.1513 207.849 91.1513ZM224.949 91.0447V93H215.777V91.4535L220.719 86.7608C221.275 86.2275 221.649 85.7654 221.838 85.3743C222.04 84.9714 222.141 84.5744 222.141 84.1834C222.141 83.6027 221.945 83.1583 221.554 82.8502C221.163 82.5421 220.588 82.388 219.83 82.388C218.562 82.388 217.59 82.8206 216.915 83.6856L215.297 82.4414C215.783 81.7896 216.435 81.286 217.252 80.9304C218.082 80.5631 219.006 80.3794 220.025 80.3794C221.376 80.3794 222.455 80.6994 223.26 81.3393C224.066 81.9792 224.469 82.8502 224.469 83.9523C224.469 84.6277 224.327 85.2617 224.043 85.8543C223.758 86.4468 223.213 87.1222 222.407 87.8807L219.083 91.0447H224.949Z" fill="white"/>
<path d="M160.839 86.4151H132.285C131.905 86.4151 131.55 86.5348 131.335 86.7327L127.472 90.3145L122.904 85.0792C122.68 84.8221 122.227 84.6746 121.776 84.7061C121.317 84.7363 120.93 84.938 120.794 85.2178L117.4 92.2277L113.882 79.0914C113.79 78.7498 113.333 78.4952 112.788 78.4839C112.247 78.4725 111.758 78.7032 111.627 79.0397L104.298 97.9786L99.1844 71.6618C99.1125 71.2963 98.6247 71.0215 98.0443 71.0203H98.0411C97.4622 71.0203 96.9729 71.2925 96.8994 71.6567L87.1418 119.543L76.316 42.6655C76.2648 42.2975 75.7899 42.0127 75.2079 42.0001C74.6322 41.995 74.1221 42.2509 74.0309 42.6151L60.0278 98.2079L54.9875 76.2065C54.9059 75.8511 54.4294 75.5864 53.8633 75.5814H53.8474C53.2877 75.5814 52.808 75.836 52.712 76.1863L48.0603 93.1414L44.6894 80.542C44.6079 80.2395 44.2369 80.0013 43.7604 79.9459C43.2839 79.8917 42.8041 80.0303 42.5595 80.295L36.9083 86.4138H0.161504C0.0943423 86.9129 0.0431751 87.3969 0 87.8758H37.5687C37.9781 87.8758 38.3555 87.7384 38.5618 87.5141L42.9464 82.7665L46.909 97.5778C47.0033 97.9281 47.4814 98.1852 48.0427 98.1865C48.6024 98.1865 49.0837 97.9307 49.1797 97.5816L53.7434 80.9466L58.8317 103.158C58.9132 103.515 59.3946 103.781 59.9638 103.784H59.9718C60.5379 103.784 61.0192 103.523 61.1088 103.169L74.8433 48.6457L85.7825 126.335C85.8353 126.706 86.3198 126.992 86.9083 127H86.9307C87.5079 127 87.9989 126.728 88.0724 126.364L98.0123 77.584L102.778 102.106C102.846 102.456 103.299 102.725 103.854 102.746C104.42 102.768 104.908 102.533 105.04 102.191L112.538 82.8106L115.938 95.5058C116.028 95.8398 116.466 96.0906 116.998 96.1133C117.545 96.1372 118.017 95.923 118.175 95.5991L122.198 87.2923L126.359 92.0588C126.553 92.2806 126.914 92.4231 127.312 92.4344C127.717 92.4382 128.093 92.326 128.316 92.1168L132.891 87.8758H161C160.957 87.3994 160.906 86.9142 160.839 86.4151Z" fill="#BAFF29"/>
<path d="M395.848 86.4151H368.891C368.531 86.4151 368.196 86.5348 367.994 86.7327L364.346 90.3145L360.033 85.0792C359.822 84.8221 359.395 84.6746 358.969 84.7061C358.536 84.7363 358.17 84.938 358.042 85.2178L354.837 92.2277L351.516 79.0914C351.429 78.7498 350.998 78.4952 350.483 78.4839C349.973 78.4725 349.511 78.7032 349.387 79.0397L342.468 97.9786L337.64 71.6618C337.572 71.2963 337.112 71.0215 336.564 71.0203H336.561C336.014 71.0203 335.552 71.2925 335.483 71.6567L326.27 119.543L316.05 42.6655C316.002 42.2975 315.553 42.0127 315.004 42.0001C314.46 41.995 313.979 42.2509 313.893 42.6151L300.672 98.2079L295.914 76.2065C295.837 75.8511 295.387 75.5864 294.852 75.5814H294.837C294.309 75.5814 293.856 75.836 293.765 76.1863L289.374 93.1414L286.191 80.542C286.114 80.2395 285.764 80.0013 285.314 79.9459C284.864 79.8917 284.411 80.0303 284.18 80.295L278.845 86.4138H244.152C244.089 86.9129 244.041 87.3969 244 87.8758H279.469C279.855 87.8758 280.211 87.7384 280.406 87.5141L284.546 82.7665L288.287 97.5778C288.376 97.9281 288.827 98.1852 289.357 98.1865C289.885 98.1865 290.34 97.9307 290.43 97.5816L294.739 80.9466L299.543 103.158C299.62 103.515 300.074 103.781 300.612 103.784H300.619C301.154 103.784 301.608 103.523 301.693 103.169L314.659 48.6457L324.987 126.335C325.037 126.706 325.495 126.992 326.05 127H326.071C326.616 127 327.08 126.728 327.149 126.364L336.533 77.584L341.032 102.106C341.097 102.456 341.524 102.725 342.048 102.746C342.583 102.768 343.043 102.533 343.168 102.191L350.247 82.8106L353.457 95.5058C353.542 95.8398 353.955 96.0906 354.458 96.1133C354.974 96.1372 355.42 95.923 355.569 95.5991L359.367 87.2923L363.296 92.0588C363.478 92.2806 363.819 92.4231 364.195 92.4344C364.577 92.4382 364.932 92.326 365.143 92.1168L369.463 87.8758H396C395.959 87.3994 395.911 86.9142 395.848 86.4151Z" fill="#BAFF29"/>
<defs>
<linearGradient id="paint0_linear_156_293" x1="201.821" y1="-0.000514273" x2="201.821" y2="141.404" gradientUnits="userSpaceOnUse">
<stop offset="0.1771" stop-color="#21A400"/>
<stop offset="0.4436" stop-color="#21A400"/>
<stop offset="0.8607" stop-color="#21A400"/>
<stop offset="1" stop-color="#21A400"/>
</linearGradient>
</defs>
</svg>
